<?xml version="1.0" encoding="UTF-8"?>
<!-- Icons made by Daniel Bruce(https://www.flaticon.com/authors/daniel-bruce) from www.flaticon.com is licensed by Creative Commons BY 3.0 (http://creativecommons.org/licenses/by/3.0/) -->
<svg xmlns="http://www.w3.org/2000/svg" width="500" height="500" viewBox="0 0 90 90">
<title>SHOPPING</title>
<g fill="black">
 <path d="M 0,2 A 2 2 0 0 1 2,0 H 18 A 2 2 0 0 1 20,2 V 10 H 90 V 38 C 90,39 89,40 88,40 L 30,57 C 29,58 29,59 30,60 H 90 V 67 A 2 2 0 0 1 88,69 H 22 A 2 2 0 0 1 20,67 V 60 L 10,10 H 0 Z" />
 <circle cx="25" cy="80" r="10" />
 <circle cx="75" cy="80" r="10" />
</g>
</svg>
