<?xml version="1.0" standalone="no"?>
<!DOCTYPE svg PUBLIC "-//W3C//DTD SVG 20010904//EN"
 "http://www.w3.org/TR/2001/REC-SVG-20010904/DTD/svg10.dtd">
<svg version="1.0" xmlns="http://www.w3.org/2000/svg"
 width="1280.000000pt" height="1240.000000pt" viewBox="0 0 1280.000000 1240.000000"
 preserveAspectRatio="xMidYMid meet">
<g transform="translate(0.000000,1240.000000) scale(0.100000,-0.100000)"
fill="#000000" stroke="none">
<path d="M3559 12396 c-2 -2 -58 -9 -124 -15 -451 -43 -802 -142 -1179 -332
-321 -162 -571 -344 -842 -614 -565 -562 -912 -1276 -1019 -2092 -45 -346 -36
-841 21 -1248 136 -958 597 -1762 1540 -2685 574 -561 956 -886 3069 -2607
325 -264 763 -623 975 -796 212 -174 388 -317 392 -317 5 0 155 136 335 302
616 567 1148 1054 1813 1658 1229 1117 1527 1395 2005 1874 586 586 915 973
1200 1406 386 588 570 1111 626 1778 15 178 7 529 -16 672 -55 353 -176 712
-347 1025 -361 664 -960 1240 -1652 1590 -397 201 -837 332 -1256 375 -58 6
-146 15 -197 20 -115 13 -218 13 -319 1 -43 -6 -128 -15 -189 -21 -481 -50
-963 -215 -1400 -478 -203 -122 -431 -292 -620 -461 -43 -39 -82 -71 -86 -71
-4 0 -31 19 -61 43 -680 549 -1456 893 -2183 967 -60 6 -146 15 -189 21 -77 9
-289 13 -297 5z"/>
</g>
</svg>
